<?xml version="1.0" encoding="utf-8"?>
<!-- Generator: Adobe Illustrator 24.0.1, SVG Export Plug-In . SVG Version: 6.00 Build 0)  -->
<svg version="1.1" id="Capa_1" xmlns="http://www.w3.org/2000/svg" xmlns:xlink="http://www.w3.org/1999/xlink" x="0px" y="0px"
	 viewBox="0 0 488.7 488.7" style="enable-background:new 0 0 488.7 488.7;" xml:space="preserve">
<style type="text/css">
	.st0{fill:#FBBD00;}
	.st1{fill:#EF6025;}
	.st2{fill:#F37F19;}
</style>
<path class="st0" d="M376.9,340.3H170.4c-27.4,0-49.5,22.2-49.5,49.5c0,27.4,22.2,49.5,49.5,49.5h206.4c27.4,0,49.5-22.2,49.5-49.5
	C426.4,362.5,404.2,340.3,376.9,340.3z"/>
<path class="st1" d="M424.3,49.3H172.5c-23.9,0-43.4,19.4-43.4,43.4c0,23.9,19.4,43.4,43.4,43.4h251.9c23.9,0,43.4-19.4,43.4-43.4
	C467.7,68.7,448.3,49.3,424.3,49.3z"/>
<path class="st2" d="M388.2,201H64.4C40.4,201,21,220.4,21,244.4c0,23.9,19.4,43.4,43.4,43.4h323.9c23.9,0,43.4-19.4,43.4-43.4
	C431.6,220.4,412.2,201,388.2,201z"/>
</svg>
